<?xml version="1.0" encoding="UTF-8"?>
<!DOCTYPE svg PUBLIC "-//W3C//DTD SVG 1.1//EN" "http://www.w3.org/Graphics/SVG/1.1/DTD/svg11.dtd">
<svg xmlns="http://www.w3.org/2000/svg" version="1.1" width="266px" height="267px" style="shape-rendering:geometricPrecision; text-rendering:geometricPrecision; image-rendering:optimizeQuality; fill-rule:evenodd; clip-rule:evenodd" xmlns:xlink="http://www.w3.org/1999/xlink">
<g><path style="opacity:0.893" fill="#535353" d="M 32.5,77.5 C 32.6567,76.1266 32.49,74.7932 32,73.5C 30.9605,75.7463 29.7938,77.913 28.5,80C 29.5,80.3333 30.5,80.6667 31.5,81C 9.9304,129.013 16.4304,172.847 51,212.5C 54.9805,215.313 58.4805,218.647 61.5,222.5C 59.3418,224.026 59.6751,225.526 62.5,227C 68.5008,231.336 74.8341,235.169 81.5,238.5C 82.0678,236.565 83.2345,235.232 85,234.5C 93.1774,238.893 101.844,241.893 111,243.5C 112.667,243.167 114.333,242.833 116,242.5C 123.723,243.101 131.39,243.768 139,244.5C 142.434,242.065 146.1,240.065 150,238.5C 150.414,238.957 150.914,239.291 151.5,239.5C 154.373,238.225 157.373,237.392 160.5,237C 163.36,234.483 166.526,233.649 170,234.5C 171.675,233.405 172.842,231.905 173.5,230C 183.495,227.17 192.495,222.503 200.5,216C 201.833,215.333 201.833,214.667 200.5,214C 204.806,209.694 209.14,205.36 213.5,201C 213.167,200.667 212.833,200.333 212.5,200C 214.7,197.766 216.533,195.266 218,192.5C 221.978,183.874 225.978,175.207 230,166.5C 235.277,143.265 234.444,120.265 227.5,97.5C 228.441,97.5105 229.108,97.0105 229.5,96C 214.684,58.5629 187.351,36.2295 147.5,29C 128.259,25.6322 109.592,27.6322 91.5,35C 84.6595,37.9214 77.9928,41.0881 71.5,44.5C 76.4895,40.3333 82.1562,37.1666 88.5,35C 89.8333,34.3333 89.8333,33.6667 88.5,33C 89.3279,32.0853 90.3279,31.4186 91.5,31C 107.556,25.1189 124.056,22.6189 141,23.5C 142.059,23.3699 142.892,22.8699 143.5,22C 137.833,21.6667 132.167,21.3333 126.5,21C 132.844,19.8734 139.177,19.0401 145.5,18.5C 152.687,18.8039 159.687,20.1372 166.5,22.5C 167.554,22.3201 168.554,21.9867 169.5,21.5C 198.45,31.3682 220.283,49.0349 235,74.5C 236,74.8333 237,75.1667 238,75.5C 258.781,115.558 258.614,155.558 237.5,195.5C 236.094,195.973 235.427,196.973 235.5,198.5C 234.662,198.842 234.328,199.508 234.5,200.5C 233.094,200.973 232.427,201.973 232.5,203.5C 231.833,203.5 231.5,203.833 231.5,204.5C 230.094,204.973 229.427,205.973 229.5,207.5C 228.833,207.5 228.5,207.833 228.5,208.5C 226.273,210.607 224.273,212.94 222.5,215.5C 224.062,215.267 225.395,214.6 226.5,213.5C 212.402,234.038 193.068,247.538 168.5,254C 128.572,264.883 91.5718,258.55 57.5,235C 55.5,233 53.5,231 51.5,229C 47.3892,222.534 41.8892,216.701 35,211.5C 7.27625,172.669 1.27625,130.669 17,85.5C 21.3004,74.8965 26.6337,64.8965 33,55.5C 44.9885,43.6002 57.8219,32.7668 71.5,23C 84.9753,16.7681 98.9753,11.9348 113.5,8.5C 114.833,9.16667 116.167,9.83333 117.5,10.5C 122.801,9.6146 128.135,8.94793 133.5,8.5C 136.795,8.29516 139.795,9.12849 142.5,11C 144.037,12.1096 144.703,13.6096 144.5,15.5C 140.675,16.7751 136.842,16.7751 133,15.5C 131.393,15.7692 130.226,16.6026 129.5,18C 97.2291,21.3869 69.7291,34.5535 47,57.5C 42.3035,64.3483 37.4701,71.015 32.5,77.5 Z M 154.5,24.5 C 151.059,24.6989 147.726,24.1989 144.5,23C 148.071,22.5518 151.404,23.0518 154.5,24.5 Z M 154.5,24.5 C 157.495,24.2938 160.162,24.9605 162.5,26.5C 159.572,26.4349 156.905,25.7682 154.5,24.5 Z M 171.5,29.5 C 174.912,30.0421 177.912,31.3754 180.5,33.5C 177.088,32.9579 174.088,31.6246 171.5,29.5 Z M 180.5,33.5 C 184.244,33.928 187.244,35.5947 189.5,38.5C 186.008,37.5903 183.008,35.9236 180.5,33.5 Z M 222.5,215.5 C 222.5,217.5 221.5,218.5 219.5,218.5C 220.167,217.167 221.167,216.167 222.5,215.5 Z M 104.5,247.5 C 105.097,246.861 105.93,246.528 107,246.5C 111.789,247.591 116.622,248.424 121.5,249C 121,249.5 120.5,250 120,250.5C 114.835,249.624 109.669,248.624 104.5,247.5 Z M 156.5,247.5 C 156.389,248.117 156.056,248.617 155.5,249C 150.379,249.178 145.379,250.011 140.5,251.5C 134.669,251.22 128.669,250.72 122.5,250C 134.179,249.796 145.512,248.962 156.5,247.5 Z"/></g>
<g><path style="opacity:0.763" fill="#525252" d="M 153.5,11.5 C 163.603,11.9776 173.269,14.3109 182.5,18.5C 182.489,17.5585 182.989,16.8919 184,16.5C 206.266,26.4256 223.932,41.7589 237,62.5C 259.473,96.6711 264.806,133.338 253,172.5C 253.253,169.867 253.253,167.2 253,164.5C 252.465,166.271 251.631,166.604 250.5,165.5C 262.559,112.848 247.559,69.3479 205.5,35C 190.455,24.313 173.788,17.313 155.5,14C 154.244,13.5831 153.577,12.7498 153.5,11.5 Z"/></g>
<g><path style="opacity:0.135" fill="#525252" d="M 145.5,18.5 C 143.143,18.6633 140.81,18.4966 138.5,18C 141.039,17.2042 143.372,17.3709 145.5,18.5 Z"/></g>
<g><path style="opacity:0.129" fill="#515151" d="M 121.5,19.5 C 122.043,19.56 122.376,19.8933 122.5,20.5C 121.277,21.6139 119.944,21.7805 118.5,21C 119.737,20.7679 120.737,20.2679 121.5,19.5 Z"/></g>
<g><path style="opacity:0.227" fill="#515151" d="M 123.5,19.5 C 124.289,19.7828 124.956,20.2828 125.5,21C 124.184,21.5281 123.517,21.0281 123.5,19.5 Z"/></g>
<g><path style="opacity:0.21" fill="#525252" d="M 71.5,44.5 C 70.7377,46.2624 69.4044,47.2624 67.5,47.5C 68.2623,45.7376 69.5956,44.7376 71.5,44.5 Z"/></g>
<g><path style="opacity:0.141" fill="#535453" d="M 67.5,47.5 C 66.8333,48.1667 66.8333,48.1667 67.5,47.5 Z"/></g>
<g><path style="opacity:0.114" fill="#505050" d="M 64.5,49.5 C 64.8417,48.6618 65.5084,48.3284 66.5,48.5C 66.1583,49.3382 65.4916,49.6716 64.5,49.5 Z"/></g>
<g><path style="opacity:0.055" fill="#474847" d="M 64.5,49.5 C 63.8333,50.1667 63.8333,50.1667 64.5,49.5 Z"/></g>
<g><path style="opacity:0.956" fill="#535353" d="M 182.5,63.5 C 189.304,62.8217 194.804,65.155 199,70.5C 204.273,82.6807 205.773,95.3473 203.5,108.5C 202.167,107.833 200.833,107.167 199.5,106.5C 198.422,101.545 197.589,96.5454 197,91.5C 194.424,84.4374 190.758,83.7707 186,89.5C 184.395,92.6478 183.395,95.9811 183,99.5C 181.521,116.221 182.188,132.888 185,149.5C 185.931,156.311 188.764,162.144 193.5,167C 195.5,167.667 197.5,167.667 199.5,167C 208.491,159.205 215.157,149.705 219.5,138.5C 221.954,137.114 223.954,137.614 225.5,140C 219.46,157.777 209.46,172.777 195.5,185C 181.754,191.876 171.588,188.376 165,174.5C 158.602,157.776 155.768,140.443 156.5,122.5C 155.861,109.141 157.694,96.1408 162,83.5C 166.106,73.8926 172.939,67.2259 182.5,63.5 Z"/></g>
<g><path style="opacity:0.067" fill="#4a4b4a" d="M 32.5,77.5 C 31.8333,78.1667 31.8333,78.1667 32.5,77.5 Z"/></g>
<g><path style="opacity:0.957" fill="#535353" d="M 47.5,83.5 C 55.0951,82.3582 61.9284,84.0249 68,88.5C 69,90.5 70,92.5 71,94.5C 73.2381,111.111 75.2381,127.777 77,144.5C 78.0879,134.796 79.4212,125.13 81,115.5C 81.3534,112.461 82.5201,109.795 84.5,107.5C 87.5803,105.895 90.0803,106.562 92,109.5C 96.6606,119.815 100.327,130.482 103,141.5C 102.393,125.681 104.726,110.348 110,95.5C 117.312,84.507 127.146,81.3403 139.5,86C 142.567,89.2975 144.733,93.1308 146,97.5C 148.114,121.418 151.781,145.085 157,168.5C 157.763,171.47 159.263,173.97 161.5,176C 157.257,183.135 150.923,187.302 142.5,188.5C 136.567,187.068 132.734,183.401 131,177.5C 128.567,170.001 126.9,162.334 126,154.5C 124.557,136.525 123.557,118.525 123,100.5C 122.255,94.6331 119.922,93.9664 116,98.5C 113.565,103.236 111.899,108.236 111,113.5C 109.812,128.469 109.145,143.469 109,158.5C 107.267,160.602 105.267,160.935 103,159.5C 97.9899,145.8 92.9899,132.133 88,118.5C 87.6667,144.167 87.3333,169.833 87,195.5C 83.5274,203.447 77.3607,207.78 68.5,208.5C 63.6979,207.53 60.1979,204.863 58,200.5C 53.2187,187.93 50.2187,174.93 49,161.5C 46.8047,135.893 44.9714,110.393 43.5,85C 45.0581,84.79 46.3915,84.29 47.5,83.5 Z"/></g>
<g><path style="opacity:0.082" fill="#545454" d="M 225.5,90.5 C 226.525,90.8966 226.692,91.5632 226,92.5C 225.536,91.9056 225.369,91.2389 225.5,90.5 Z"/></g>
<g><path style="opacity:0.041" fill="#545454" d="M 226.5,93.5 C 227.525,93.8966 227.692,94.5632 227,95.5C 226.536,94.9056 226.369,94.2389 226.5,93.5 Z"/></g>
<g><path style="opacity:0.513" fill="#515151" d="M 239.5,196.5 C 238.167,197.167 238.167,197.833 239.5,198.5C 239.087,201.415 237.421,203.248 234.5,204C 231.969,207.358 229.302,210.524 226.5,213.5C 227.167,211.833 227.833,210.167 228.5,208.5C 229.167,208.5 229.5,208.167 229.5,207.5C 230.906,207.027 231.573,206.027 231.5,204.5C 232.167,204.5 232.5,204.167 232.5,203.5C 233.906,203.027 234.573,202.027 234.5,200.5C 235.338,200.158 235.672,199.492 235.5,198.5C 236.906,198.027 237.573,197.027 237.5,195.5C 240.18,192.557 240.847,192.89 239.5,196.5 Z"/></g>
<g><path style="opacity:0.125" fill="#535353" d="M 239.5,196.5 C 240.833,197.167 240.833,197.833 239.5,198.5C 239.5,197.833 239.5,197.167 239.5,196.5 Z"/></g>
</svg>
